<svg xmlns="http://www.w3.org/2000/svg" width="18.621" height="13.966" viewBox="0 0 18.621 13.966">
  <g id="Group_3706" data-name="Group 3706" transform="translate(-119.356 -1075.017)">
    <path id="Path_7356" data-name="Path 7356" d="M16.875,3.164a.582.582,0,0,1,.582.582V14.22a.582.582,0,0,1-.582.582H1.746a.582.582,0,0,1-.582-.582V3.746a.582.582,0,0,1,.582-.582ZM1.746,2A1.746,1.746,0,0,0,0,3.746V14.22a1.746,1.746,0,0,0,1.746,1.746H16.875a1.746,1.746,0,0,0,1.746-1.746V3.746A1.746,1.746,0,0,0,16.875,2Z" transform="translate(119.356 1073.017)"/>
    <path id="Path_7357" data-name="Path 7357" d="M5.328,8.491a.582.582,0,0,1,.582-.582h8.147a.582.582,0,0,1,0,1.164H5.909A.582.582,0,0,1,5.328,8.491Zm0-2.909A.582.582,0,0,1,5.909,5h8.147a.582.582,0,0,1,0,1.164H5.909A.582.582,0,0,1,5.328,5.582Zm0,5.819a.582.582,0,0,1,.582-.582h8.147a.582.582,0,0,1,0,1.164H5.909A.582.582,0,0,1,5.328,11.4ZM4.164,5.582A.582.582,0,1,1,3.582,5,.582.582,0,0,1,4.164,5.582Zm0,2.909a.582.582,0,1,1-.582-.582A.582.582,0,0,1,4.164,8.491Zm0,2.909a.582.582,0,1,1-.582-.582A.582.582,0,0,1,4.164,11.4Z" transform="translate(119.848 1073.509)" fill="#ffc21f"/>
  </g>
</svg>
