<svg xmlns="http://www.w3.org/2000/svg" width="16" height="16.098" viewBox="0 0 16 16.098">
  <g id="Group_128" data-name="Group 128" transform="translate(-25 -529)">
    <path id="heart-fill" d="M8,1.314C12.438-3.248,23.534,4.735,8,15-7.534,4.736,3.562-3.248,8,1.314Z" transform="translate(25 529)" fill="#ffc21f" fill-rule="evenodd"/>
    <g id="Group_3699" data-name="Group 3699" transform="translate(-157 -80)">
      <path id="Path_7306" data-name="Path 7306" d="M-3266-3995.642l-6.571-6.934-.3-3.83,1.09-1.849,1.849-.594h2.344l1.123,1.42,1.024.231.759-1.386,1.684-.264,1.75.264,1.75,1.386.594,2.542-1.618,3.7-2.245,2.443-2.443,1.981Z" transform="translate(3456 4620)" fill="#fff" stroke="#fff" stroke-width="1"/>
      <path id="heart" d="M8,2.748l-.717-.737A3.756,3.756,0,0,0,1.4,3.053a4.715,4.715,0,0,0,.314,4.385C2.634,9.253,4.548,11.427,8,13.8c3.452-2.368,5.365-4.542,6.286-6.357A4.713,4.713,0,0,0,14.6,3.053,3.756,3.756,0,0,0,8.717,2.01ZM8,15C-7.333,4.868,3.279-3.04,7.824,1.143c.06.055.119.112.176.171q.085-.088.176-.17C12.72-3.042,23.333,4.867,8,15Z" transform="translate(182 610)" fill="#303030"/>
    </g>
  </g>
</svg>
