<svg id="journal-bookmark-fill" xmlns="http://www.w3.org/2000/svg" width="15" height="16" viewBox="0 0 15 16">
  <path id="Path_7298" data-name="Path 7298" d="M6,1h6V8a.5.5,0,0,1-.757.429L9,7.083,6.757,8.43A.5.5,0,0,1,6,8Z" fill="#ffc21f" fill-rule="evenodd"/>
  <path id="Path_7299" data-name="Path 7299" d="M3,0H13a2,2,0,0,1,2,2V14a2,2,0,0,1-2,2H3a2,2,0,0,1-2-2V13H2v1a1,1,0,0,0,1,1H13a1,1,0,0,0,1-1V2a1,1,0,0,0-1-1H3A1,1,0,0,0,2,2V3H1V2A2,2,0,0,1,3,0Z" fill="#303030"/>
  <path id="Path_7300" data-name="Path 7300" d="M1,5V4.5a.5.5,0,0,1,1,0V5h.5a.5.5,0,0,1,0,1H.5a.5.5,0,0,1,0-1ZM1,8V7.5a.5.5,0,0,1,1,0V8h.5a.5.5,0,0,1,0,1H.5a.5.5,0,0,1,0-1Zm0,3v-.5a.5.5,0,0,1,1,0V11h.5a.5.5,0,0,1,0,1H.5a.5.5,0,0,1,0-1Z" fill="#303030"/>
</svg>
