<svg xmlns="http://www.w3.org/2000/svg" width="16" height="16" viewBox="0 0 16 16">
  <g id="Group_3700" data-name="Group 3700" transform="translate(-27 -329)">
    <path id="person" d="M10,10A4,4,0,1,0,6,6,4,4,0,0,0,10,10Zm2.667-4A2.667,2.667,0,1,1,10,3.333,2.667,2.667,0,0,1,12.667,6ZM18,16.667A1.306,1.306,0,0,1,16.667,18H3.333A1.306,1.306,0,0,1,2,16.667c0-1.333,1.333-5.333,8-5.333S18,15.333,18,16.667Zm-1.333-.005a3.563,3.563,0,0,0-1.109-2.219c-.869-.869-2.505-1.776-5.557-1.776s-4.688.907-5.557,1.776a3.57,3.57,0,0,0-1.109,2.219Z" transform="translate(25 327)" fill="#303030"/>
    <g id="Ellipse_265" data-name="Ellipse 265" transform="translate(31 329)" fill="#fff" stroke="#ffc21f" stroke-width="1">
      <circle cx="4" cy="4" r="4" stroke="none"/>
      <circle cx="4" cy="4" r="3.5" fill="none"/>
    </g>
  </g>
</svg>
